<svg xmlns="http://www.w3.org/2000/svg" width="780" height="390" viewBox="0 0 780 390"><rect width="780" height="390" fill="white"/><g font-family="sans-serif" font-size="12" fill="#172b4d"><text x="65" y="24" font-size="17">Historical night-light scalar response (log output)</text><path d="M65 310H705" stroke="#e2e8f0"/><text x="10" y="314">10^-6</text><path d="M65 271.1111111111111H705" stroke="#e2e8f0"/><text x="10" y="275.1111111111111">10^-5</text><path d="M65 232.22222222222223H705" stroke="#e2e8f0"/><text x="10" y="236.22222222222223">10^-4</text><path d="M65 193.33333333333331H705" stroke="#e2e8f0"/><text x="10" y="197.33333333333331">10^-3</text><path d="M65 154.44444444444446H705" stroke="#e2e8f0"/><text x="10" y="158.44444444444446">10^-2</text><path d="M65 115.55555555555554H705" stroke="#e2e8f0"/><text x="10" y="119.55555555555554">10^-1</text><path d="M65 76.66666666666666H705" stroke="#e2e8f0"/><text x="10" y="80.66666666666666">10^0</text><text x="59" y="330">0</text><text x="123" y="330">0.1</text><text x="187" y="330">0.2</text><text x="315" y="330">0.4</text><text x="443" y="330">0.6</text><text x="571" y="330">0.8</text><text x="699" y="330">1</text><path fill="none" stroke="#b45309" stroke-width="2" d="M65.00 310.00 L66.28 310.00 L67.56 310.00 L68.84 310.00 L70.12 310.00 L71.40 310.00 L72.68 310.00 L73.96 157.94 L75.24 147.99 L76.52 142.17 L77.80 138.04 L79.08 134.84 L80.36 132.22 L81.64 130.01 L82.92 128.09 L84.20 126.40 L85.48 124.89 L86.76 123.52 L88.04 122.27 L89.32 121.12 L90.60 120.06 L91.88 119.07 L93.16 118.14 L94.44 117.27 L95.72 116.45 L97.00 115.67 L98.28 114.94 L99.56 114.24 L100.84 113.57 L102.12 112.93 L103.40 112.32 L104.68 111.73 L105.96 111.17 L107.24 110.63 L108.52 110.11 L109.80 109.60 L111.08 109.12 L112.36 108.65 L113.64 108.19 L114.92 107.75 L116.20 107.32 L117.48 106.90 L118.76 106.50 L120.04 106.11 L121.32 105.72 L122.60 105.35 L123.88 104.99 L125.16 104.63 L126.44 104.29 L127.72 103.95 L129.00 103.62 L130.28 103.30 L131.56 102.98 L132.84 102.67 L134.12 102.37 L135.40 102.07 L136.68 101.78 L137.96 101.50 L139.24 101.22 L140.52 100.95 L141.80 100.68 L143.08 100.42 L144.36 100.16 L145.64 99.90 L146.92 99.65 L148.20 99.41 L149.48 99.17 L150.76 98.93 L152.04 98.70 L153.32 98.47 L154.60 98.24 L155.88 98.02 L157.16 97.80 L158.44 97.58 L159.72 97.37 L161.00 97.16 L162.28 96.95 L163.56 96.75 L164.84 96.55 L166.12 96.35 L167.40 96.16 L168.68 95.96 L169.96 95.77 L171.24 95.59 L172.52 95.40 L173.80 95.22 L175.08 95.04 L176.36 94.86 L177.64 94.68 L178.92 94.51 L180.20 94.34 L181.48 94.17 L182.76 94.00 L184.04 93.83 L185.32 93.67 L186.60 93.51 L187.88 93.35 L189.16 93.19 L190.44 93.03 L191.72 92.88 L193.00 92.72 L194.28 92.57 L195.56 92.42 L196.84 92.27 L198.12 92.12 L199.40 91.98 L200.68 91.83 L201.96 91.69 L203.24 91.55 L204.52 91.41 L205.80 91.27 L207.08 91.13 L208.36 91.00 L209.64 90.86 L210.92 90.73 L212.20 90.60 L213.48 90.47 L214.76 90.34 L216.04 90.21 L217.32 90.08 L218.60 89.95 L219.88 89.83 L221.16 89.70 L222.44 89.58 L223.72 89.46 L225.00 89.34 L226.28 89.22 L227.56 89.10 L228.84 88.98 L230.12 88.86 L231.40 88.75 L232.68 88.63 L233.96 88.52 L235.24 88.40 L236.52 88.29 L237.80 88.18 L239.08 88.07 L240.36 87.96 L241.64 87.85 L242.92 87.74 L244.20 87.63 L245.48 87.53 L246.76 87.42 L248.04 87.31 L249.32 87.21 L250.60 87.11 L251.88 87.00 L253.16 86.90 L254.44 86.80 L255.72 86.70 L257.00 86.60 L258.28 86.50 L259.56 86.40 L260.84 86.30 L262.12 86.21 L263.40 86.11 L264.68 86.01 L265.96 85.92 L267.24 85.82 L268.52 85.73 L269.80 85.63 L271.08 85.54 L272.36 85.45 L273.64 85.36 L274.92 85.27 L276.20 85.18 L277.48 85.09 L278.76 85.00 L280.04 84.91 L281.32 84.82 L282.60 84.73 L283.88 84.64 L285.16 84.56 L286.44 84.47 L287.72 84.39 L289.00 84.30 L290.28 84.22 L291.56 84.13 L292.84 84.05 L294.12 83.96 L295.40 83.88 L296.68 83.80 L297.96 83.72 L299.24 83.64 L300.52 83.56 L301.80 83.48 L303.08 83.40 L304.36 83.32 L305.64 83.24 L306.92 83.16 L308.20 83.08 L309.48 83.00 L310.76 82.92 L312.04 82.85 L313.32 82.77 L314.60 82.69 L315.88 82.62 L317.16 82.54 L318.44 82.47 L319.72 82.39 L321.00 82.32 L322.28 82.25 L323.56 82.17 L324.84 82.10 L326.12 82.03 L327.40 81.95 L328.68 81.88 L329.96 81.81 L331.24 81.74 L332.52 81.67 L333.80 81.60 L335.08 81.53 L336.36 81.46 L337.64 81.39 L338.92 81.32 L340.20 81.25 L341.48 81.18 L342.76 81.11 L344.04 81.05 L345.32 80.98 L346.60 80.91 L347.88 80.84 L349.16 80.78 L350.44 80.71 L351.72 80.65 L353.00 80.58 L354.28 80.51 L355.56 80.45 L356.84 80.38 L358.12 80.32 L359.40 80.26 L360.68 80.19 L361.96 80.13 L363.24 80.06 L364.52 80.00 L365.80 79.94 L367.08 79.88 L368.36 79.81 L369.64 79.75 L370.92 79.69 L372.20 79.63 L373.48 79.57 L374.76 79.51 L376.04 79.45 L377.32 79.39 L378.60 79.33 L379.88 79.27 L381.16 79.21 L382.44 79.15 L383.72 79.09 L385.00 79.03 L386.28 78.97 L387.56 78.91 L388.84 78.85 L390.12 78.79 L391.40 78.74 L392.68 78.68 L393.96 78.62 L395.24 78.56 L396.52 78.51 L397.80 78.45 L399.08 78.40 L400.36 78.34 L401.64 78.28 L402.92 78.23 L404.20 78.17 L405.48 78.12 L406.76 78.06 L408.04 78.01 L409.32 77.95 L410.60 77.90 L411.88 77.84 L413.16 77.79 L414.44 77.73 L415.72 77.68 L417.00 77.63 L418.28 77.57 L419.56 77.52 L420.84 77.47 L422.12 77.42 L423.40 77.36 L424.68 77.31 L425.96 77.26 L427.24 77.21 L428.52 77.16 L429.80 77.10 L431.08 77.05 L432.36 77.00 L433.64 76.95 L434.92 76.90 L436.20 76.85 L437.48 76.80 L438.76 76.75 L440.04 76.70 L441.32 76.65 L442.60 76.60 L443.88 76.55 L445.16 76.50 L446.44 76.45 L447.72 76.40 L449.00 76.35 L450.28 76.30 L451.56 76.25 L452.84 76.21 L454.12 76.16 L455.40 76.11 L456.68 76.06 L457.96 76.01 L459.24 75.97 L460.52 75.92 L461.80 75.87 L463.08 75.82 L464.36 75.78 L465.64 75.73 L466.92 75.68 L468.20 75.64 L469.48 75.59 L470.76 75.55 L472.04 75.50 L473.32 75.45 L474.60 75.41 L475.88 75.36 L477.16 75.32 L478.44 75.27 L479.72 75.23 L481.00 75.18 L482.28 75.14 L483.56 75.09 L484.84 75.05 L486.12 75.00 L487.40 74.96 L488.68 74.91 L489.96 74.87 L491.24 74.82 L492.52 74.78 L493.80 74.74 L495.08 74.69 L496.36 74.65 L497.64 74.61 L498.92 74.56 L500.20 74.52 L501.48 74.48 L502.76 74.44 L504.04 74.39 L505.32 74.35 L506.60 74.31 L507.88 74.27 L509.16 74.22 L510.44 74.18 L511.72 74.14 L513.00 74.10 L514.28 74.06 L515.56 74.01 L516.84 73.97 L518.12 73.93 L519.40 73.89 L520.68 73.85 L521.96 73.81 L523.24 73.77 L524.52 73.73 L525.80 73.69 L527.08 73.65 L528.36 73.61 L529.64 73.56 L530.92 73.52 L532.20 73.48 L533.48 73.44 L534.76 73.40 L536.04 73.37 L537.32 73.33 L538.60 73.29 L539.88 73.25 L541.16 73.21 L542.44 73.17 L543.72 73.13 L545.00 73.09 L546.28 73.05 L547.56 73.01 L548.84 72.97 L550.12 72.94 L551.40 72.90 L552.68 72.86 L553.96 72.82 L555.24 72.78 L556.52 72.74 L557.80 72.71 L559.08 72.67 L560.36 72.63 L561.64 72.59 L562.92 72.56 L564.20 72.52 L565.48 72.48 L566.76 72.44 L568.04 72.41 L569.32 72.37 L570.60 72.33 L571.88 72.30 L573.16 72.26 L574.44 72.22 L575.72 72.19 L577.00 72.15 L578.28 72.11 L579.56 72.08 L580.84 72.04 L582.12 72.00 L583.40 71.97 L584.68 71.93 L585.96 71.90 L587.24 71.86 L588.52 71.82 L589.80 71.79 L591.08 71.75 L592.36 71.72 L593.64 71.68 L594.92 71.65 L596.20 71.61 L597.48 71.58 L598.76 71.54 L600.04 71.51 L601.32 71.47 L602.60 71.44 L603.88 71.40 L605.16 71.37 L606.44 71.33 L607.72 71.30 L609.00 71.27 L610.28 71.23 L611.56 71.20 L612.84 71.16 L614.12 71.13 L615.40 71.10 L616.68 71.06 L617.96 71.03 L619.24 70.99 L620.52 70.96 L621.80 70.93 L623.08 70.89 L624.36 70.86 L625.64 70.83 L626.92 70.79 L628.20 70.76 L629.48 70.73 L630.76 70.69 L632.04 70.66 L633.32 70.63 L634.60 70.60 L635.88 70.56 L637.16 70.53 L638.44 70.50 L639.72 70.47 L641.00 70.43 L642.28 70.40 L643.56 70.37 L644.84 70.34 L646.12 70.31 L647.40 70.27 L648.68 70.24 L649.96 70.21 L651.24 70.18 L652.52 70.15 L653.80 70.11 L655.08 70.08 L656.36 70.05 L657.64 70.02 L658.92 69.99 L660.20 69.96 L661.48 69.93 L662.76 69.89 L664.04 69.86 L665.32 69.83 L666.60 69.80 L667.88 69.77 L669.16 69.74 L670.44 69.71 L671.72 69.68 L673.00 69.65 L674.28 69.62 L675.56 69.59 L676.84 69.56 L678.12 69.53 L679.40 69.50 L680.68 69.47 L681.96 69.43 L683.24 69.40 L684.52 69.37 L685.80 69.34 L687.08 69.31 L688.36 69.28 L689.64 69.26 L690.92 69.23 L692.20 69.20 L693.48 69.17 L694.76 69.14 L696.04 69.11 L697.32 69.08 L698.60 69.05 L699.88 69.02 L701.16 68.99 L702.44 68.96 L703.72 68.93 L705.00 68.90"/><path fill="none" stroke="#2563eb" stroke-width="2" d="M65.00 310.00 L66.28 310.00 L67.56 310.00 L68.84 310.00 L70.12 310.00 L71.40 310.00 L72.68 310.00 L73.96 310.00 L75.24 284.73 L76.52 262.83 L77.80 247.41 L79.08 235.54 L80.36 225.92 L81.64 217.86 L82.92 210.94 L84.20 204.89 L85.48 199.53 L86.76 194.73 L88.04 190.40 L89.32 186.46 L90.60 182.85 L91.88 179.54 L93.16 176.48 L94.44 173.65 L95.72 171.02 L97.00 168.57 L98.28 166.29 L99.56 164.16 L100.84 162.16 L102.12 160.30 L103.40 158.55 L104.68 156.92 L105.96 155.39 L107.24 153.97 L108.52 152.63 L109.80 151.39 L111.08 150.24 L112.36 149.18 L113.64 148.19 L114.92 147.29 L116.20 146.48 L117.48 145.74 L118.76 145.09 L120.04 144.52 L121.32 144.02 L122.60 143.56 L123.88 143.10 L125.16 142.66 L126.44 142.23 L127.72 141.81 L129.00 141.41 L130.28 141.01 L131.56 140.63 L132.84 140.25 L134.12 139.89 L135.40 139.53 L136.68 139.19 L137.96 138.85 L139.24 138.52 L140.52 138.20 L141.80 137.88 L143.08 137.58 L144.36 137.28 L145.64 136.98 L146.92 136.70 L148.20 136.42 L149.48 136.14 L150.76 135.87 L152.04 135.61 L153.32 135.35 L154.60 135.10 L155.88 134.85 L157.16 134.61 L158.44 134.37 L159.72 134.14 L161.00 133.91 L162.28 133.68 L163.56 133.46 L164.84 133.25 L166.12 133.03 L167.40 132.83 L168.68 132.62 L169.96 132.42 L171.24 132.22 L172.52 132.03 L173.80 131.84 L175.08 131.65 L176.36 131.47 L177.64 131.29 L178.92 131.11 L180.20 130.93 L181.48 130.76 L182.76 130.59 L184.04 130.43 L185.32 130.26 L186.60 130.10 L187.88 129.94 L189.16 129.79 L190.44 129.63 L191.72 129.48 L193.00 129.33 L194.28 129.18 L195.56 129.04 L196.84 128.90 L198.12 128.76 L199.40 128.62 L200.68 128.48 L201.96 128.35 L203.24 128.21 L204.52 128.08 L205.80 127.95 L207.08 127.83 L208.36 127.70 L209.64 127.58 L210.92 127.45 L212.20 127.33 L213.48 127.22 L214.76 127.10 L216.04 126.98 L217.32 126.87 L218.60 126.76 L219.88 126.65 L221.16 126.54 L222.44 126.43 L223.72 126.32 L225.00 126.22 L226.28 126.11 L227.56 126.01 L228.84 125.91 L230.12 125.81 L231.40 125.71 L232.68 125.61 L233.96 125.51 L235.24 125.42 L236.52 125.32 L237.80 125.23 L239.08 125.14 L240.36 125.05 L241.64 124.96 L242.92 124.87 L244.20 124.78 L245.48 124.69 L246.76 124.61 L248.04 124.52 L249.32 124.44 L250.60 124.36 L251.88 124.27 L253.16 124.19 L254.44 124.11 L255.72 124.03 L257.00 123.95 L258.28 123.88 L259.56 123.80 L260.84 123.72 L262.12 123.65 L263.40 123.57 L264.68 123.50 L265.96 123.43 L267.24 123.36 L268.52 123.29 L269.80 123.22 L271.08 123.15 L272.36 123.08 L273.64 123.01 L274.92 122.94 L276.20 122.87 L277.48 122.81 L278.76 122.74 L280.04 122.68 L281.32 122.61 L282.60 122.55 L283.88 122.49 L285.16 122.42 L286.44 122.36 L287.72 122.30 L289.00 122.24 L290.28 122.18 L291.56 122.12 L292.84 122.06 L294.12 122.00 L295.40 121.95 L296.68 121.89 L297.96 121.83 L299.24 121.78 L300.52 121.72 L301.80 121.67 L303.08 121.61 L304.36 121.56 L305.64 121.50 L306.92 121.45 L308.20 121.40 L309.48 121.35 L310.76 121.29 L312.04 121.24 L313.32 121.19 L314.60 121.14 L315.88 121.09 L317.16 121.04 L318.44 120.99 L319.72 120.95 L321.00 120.90 L322.28 120.85 L323.56 120.80 L324.84 120.76 L326.12 120.71 L327.40 120.66 L328.68 120.62 L329.96 120.57 L331.24 120.53 L332.52 120.48 L333.80 120.44 L335.08 120.40 L336.36 120.35 L337.64 120.31 L338.92 120.27 L340.20 120.23 L341.48 120.18 L342.76 120.14 L344.04 120.10 L345.32 120.06 L346.60 120.02 L347.88 119.98 L349.16 119.94 L350.44 119.90 L351.72 119.86 L353.00 119.82 L354.28 119.78 L355.56 119.74 L356.84 119.71 L358.12 119.67 L359.40 119.63 L360.68 119.59 L361.96 119.56 L363.24 119.52 L364.52 119.48 L365.80 119.45 L367.08 119.41 L368.36 119.38 L369.64 119.34 L370.92 119.31 L372.20 119.27 L373.48 119.24 L374.76 119.20 L376.04 119.17 L377.32 119.14 L378.60 119.10 L379.88 119.07 L381.16 119.04 L382.44 119.00 L383.72 118.97 L385.00 118.94 L386.28 118.91 L387.56 118.88 L388.84 118.84 L390.12 118.81 L391.40 118.78 L392.68 118.75 L393.96 118.72 L395.24 118.69 L396.52 118.66 L397.80 118.63 L399.08 118.60 L400.36 118.57 L401.64 118.54 L402.92 118.51 L404.20 118.48 L405.48 118.46 L406.76 118.43 L408.04 118.40 L409.32 118.37 L410.60 118.34 L411.88 118.31 L413.16 118.29 L414.44 118.26 L415.72 118.23 L417.00 118.21 L418.28 118.18 L419.56 118.15 L420.84 118.13 L422.12 118.10 L423.40 118.07 L424.68 118.05 L425.96 118.02 L427.24 118.00 L428.52 117.97 L429.80 117.95 L431.08 117.92 L432.36 117.90 L433.64 117.87 L434.92 117.85 L436.20 117.82 L437.48 117.80 L438.76 117.77 L440.04 117.75 L441.32 117.73 L442.60 117.70 L443.88 117.68 L445.16 117.66 L446.44 117.63 L447.72 117.61 L449.00 117.59 L450.28 117.56 L451.56 117.54 L452.84 117.52 L454.12 117.50 L455.40 117.47 L456.68 117.45 L457.96 117.43 L459.24 117.41 L460.52 117.39 L461.80 117.37 L463.08 117.34 L464.36 117.32 L465.64 117.30 L466.92 117.28 L468.20 117.26 L469.48 117.24 L470.76 117.22 L472.04 117.20 L473.32 117.18 L474.60 117.16 L475.88 117.14 L477.16 117.12 L478.44 117.10 L479.72 117.08 L481.00 117.06 L482.28 117.04 L483.56 117.02 L484.84 117.00 L486.12 116.98 L487.40 116.96 L488.68 116.94 L489.96 116.92 L491.24 116.90 L492.52 116.89 L493.80 116.87 L495.08 116.85 L496.36 116.83 L497.64 116.81 L498.92 116.79 L500.20 116.78 L501.48 116.76 L502.76 116.74 L504.04 116.72 L505.32 116.70 L506.60 116.69 L507.88 116.67 L509.16 116.65 L510.44 116.64 L511.72 116.62 L513.00 116.60 L514.28 116.58 L515.56 116.57 L516.84 116.55 L518.12 116.53 L519.40 116.52 L520.68 116.50 L521.96 116.48 L523.24 116.47 L524.52 116.45 L525.80 116.44 L527.08 116.42 L528.36 116.40 L529.64 116.39 L530.92 116.37 L532.20 116.36 L533.48 116.34 L534.76 116.33 L536.04 116.31 L537.32 116.29 L538.60 116.28 L539.88 116.26 L541.16 116.25 L542.44 116.23 L543.72 116.22 L545.00 116.20 L546.28 116.19 L547.56 116.17 L548.84 116.16 L550.12 116.14 L551.40 116.13 L552.68 116.12 L553.96 116.10 L555.24 116.09 L556.52 116.07 L557.80 116.06 L559.08 116.04 L560.36 116.03 L561.64 116.02 L562.92 116.00 L564.20 115.99 L565.48 115.98 L566.76 115.96 L568.04 115.95 L569.32 115.93 L570.60 115.92 L571.88 115.91 L573.16 115.89 L574.44 115.88 L575.72 115.87 L577.00 115.86 L578.28 115.84 L579.56 115.83 L580.84 115.82 L582.12 115.80 L583.40 115.79 L584.68 115.78 L585.96 115.77 L587.24 115.75 L588.52 115.74 L589.80 115.73 L591.08 115.71 L592.36 115.70 L593.64 115.69 L594.92 115.68 L596.20 115.67 L597.48 115.65 L598.76 115.64 L600.04 115.63 L601.32 115.62 L602.60 115.61 L603.88 115.59 L605.16 115.58 L606.44 115.57 L607.72 115.56 L609.00 115.55 L610.28 115.54 L611.56 115.52 L612.84 115.51 L614.12 115.50 L615.40 115.49 L616.68 115.48 L617.96 115.47 L619.24 115.46 L620.52 115.44 L621.80 115.43 L623.08 115.42 L624.36 115.41 L625.64 115.40 L626.92 115.39 L628.20 115.38 L629.48 115.37 L630.76 115.36 L632.04 115.35 L633.32 115.34 L634.60 115.33 L635.88 115.31 L637.16 115.30 L638.44 115.29 L639.72 115.28 L641.00 115.27 L642.28 115.26 L643.56 115.25 L644.84 115.24 L646.12 115.23 L647.40 115.22 L648.68 115.21 L649.96 115.20 L651.24 115.19 L652.52 115.18 L653.80 115.17 L655.08 115.16 L656.36 115.15 L657.64 115.14 L658.92 115.13 L660.20 115.12 L661.48 115.11 L662.76 115.10 L664.04 115.09 L665.32 115.08 L666.60 115.07 L667.88 115.07 L669.16 115.06 L670.44 115.05 L671.72 115.04 L673.00 115.03 L674.28 115.02 L675.56 115.01 L676.84 115.00 L678.12 114.99 L679.40 114.98 L680.68 114.97 L681.96 114.96 L683.24 114.95 L684.52 114.95 L685.80 114.94 L687.08 114.93 L688.36 114.92 L689.64 114.91 L690.92 114.90 L692.20 114.89 L693.48 114.88 L694.76 114.88 L696.04 114.87 L697.32 114.86 L698.60 114.85 L699.88 114.84 L701.16 114.83 L702.44 114.82 L703.72 114.82 L705.00 114.81"/><path fill="none" stroke="#dc2626" stroke-width="2" d="M65.00 310.00 L66.28 310.00 L67.56 310.00 L68.84 310.00 L70.12 310.00 L71.40 310.00 L72.68 310.00 L73.96 261.10 L75.24 226.94 L76.52 207.38 L77.80 193.81 L79.08 183.54 L80.36 175.38 L81.64 168.68 L82.92 163.06 L84.20 158.29 L85.48 154.21 L86.76 150.69 L88.04 147.66 L89.32 145.07 L90.60 142.87 L91.88 141.04 L93.16 139.56 L94.44 138.45 L95.72 137.66 L97.00 136.96 L98.28 136.31 L99.56 135.69 L100.84 135.11 L102.12 134.57 L103.40 134.05 L104.68 133.56 L105.96 133.10 L107.24 132.65 L108.52 132.23 L109.80 131.83 L111.08 131.45 L112.36 131.08 L113.64 130.73 L114.92 130.39 L116.20 130.07 L117.48 129.76 L118.76 129.46 L120.04 129.17 L121.32 128.89 L122.60 128.63 L123.88 128.37 L125.16 128.12 L126.44 127.88 L127.72 127.65 L129.00 127.42 L130.28 127.20 L131.56 126.99 L132.84 126.79 L134.12 126.59 L135.40 126.40 L136.68 126.21 L137.96 126.03 L139.24 125.85 L140.52 125.68 L141.80 125.51 L143.08 125.35 L144.36 125.19 L145.64 125.04 L146.92 124.89 L148.20 124.74 L149.48 124.60 L150.76 124.46 L152.04 124.32 L153.32 124.19 L154.60 124.06 L155.88 123.94 L157.16 123.81 L158.44 123.69 L159.72 123.58 L161.00 123.46 L162.28 123.35 L163.56 123.24 L164.84 123.13 L166.12 123.02 L167.40 122.92 L168.68 122.82 L169.96 122.72 L171.24 122.62 L172.52 122.53 L173.80 122.44 L175.08 122.34 L176.36 122.25 L177.64 122.17 L178.92 122.08 L180.20 122.00 L181.48 121.91 L182.76 121.83 L184.04 121.75 L185.32 121.67 L186.60 121.60 L187.88 121.52 L189.16 121.45 L190.44 121.37 L191.72 121.30 L193.00 121.23 L194.28 121.16 L195.56 121.09 L196.84 121.03 L198.12 120.96 L199.40 120.89 L200.68 120.83 L201.96 120.77 L203.24 120.71 L204.52 120.64 L205.80 120.58 L207.08 120.53 L208.36 120.47 L209.64 120.41 L210.92 120.35 L212.20 120.30 L213.48 120.24 L214.76 120.19 L216.04 120.14 L217.32 120.09 L218.60 120.03 L219.88 119.98 L221.16 119.93 L222.44 119.88 L223.72 119.84 L225.00 119.79 L226.28 119.74 L227.56 119.69 L228.84 119.65 L230.12 119.60 L231.40 119.56 L232.68 119.51 L233.96 119.47 L235.24 119.43 L236.52 119.38 L237.80 119.34 L239.08 119.30 L240.36 119.26 L241.64 119.22 L242.92 119.18 L244.20 119.14 L245.48 119.10 L246.76 119.06 L248.04 119.03 L249.32 118.99 L250.60 118.95 L251.88 118.92 L253.16 118.88 L254.44 118.84 L255.72 118.81 L257.00 118.77 L258.28 118.74 L259.56 118.71 L260.84 118.67 L262.12 118.64 L263.40 118.61 L264.68 118.58 L265.96 118.54 L267.24 118.51 L268.52 118.48 L269.80 118.45 L271.08 118.42 L272.36 118.39 L273.64 118.36 L274.92 118.33 L276.20 118.30 L277.48 118.27 L278.76 118.24 L280.04 118.21 L281.32 118.19 L282.60 118.16 L283.88 118.13 L285.16 118.10 L286.44 118.08 L287.72 118.05 L289.00 118.02 L290.28 118.00 L291.56 117.97 L292.84 117.95 L294.12 117.92 L295.40 117.90 L296.68 117.87 L297.96 117.85 L299.24 117.82 L300.52 117.80 L301.80 117.77 L303.08 117.75 L304.36 117.73 L305.64 117.70 L306.92 117.68 L308.20 117.66 L309.48 117.64 L310.76 117.61 L312.04 117.59 L313.32 117.57 L314.60 117.55 L315.88 117.53 L317.16 117.51 L318.44 117.49 L319.72 117.46 L321.00 117.44 L322.28 117.42 L323.56 117.40 L324.84 117.38 L326.12 117.36 L327.40 117.34 L328.68 117.32 L329.96 117.30 L331.24 117.28 L332.52 117.27 L333.80 117.25 L335.08 117.23 L336.36 117.21 L337.64 117.19 L338.92 117.17 L340.20 117.15 L341.48 117.14 L342.76 117.12 L344.04 117.10 L345.32 117.08 L346.60 117.07 L347.88 117.05 L349.16 117.03 L350.44 117.02 L351.72 117.00 L353.00 116.98 L354.28 116.97 L355.56 116.95 L356.84 116.93 L358.12 116.92 L359.40 116.90 L360.68 116.88 L361.96 116.87 L363.24 116.85 L364.52 116.84 L365.80 116.82 L367.08 116.81 L368.36 116.79 L369.64 116.78 L370.92 116.76 L372.20 116.75 L373.48 116.73 L374.76 116.72 L376.04 116.70 L377.32 116.69 L378.60 116.68 L379.88 116.66 L381.16 116.65 L382.44 116.63 L383.72 116.62 L385.00 116.61 L386.28 116.59 L387.56 116.58 L388.84 116.57 L390.12 116.55 L391.40 116.54 L392.68 116.53 L393.96 116.51 L395.24 116.50 L396.52 116.49 L397.80 116.47 L399.08 116.46 L400.36 116.45 L401.64 116.44 L402.92 116.42 L404.20 116.41 L405.48 116.40 L406.76 116.39 L408.04 116.37 L409.32 116.36 L410.60 116.35 L411.88 116.34 L413.16 116.33 L414.44 116.32 L415.72 116.30 L417.00 116.29 L418.28 116.28 L419.56 116.27 L420.84 116.26 L422.12 116.25 L423.40 116.24 L424.68 116.23 L425.96 116.21 L427.24 116.20 L428.52 116.19 L429.80 116.18 L431.08 116.17 L432.36 116.16 L433.64 116.15 L434.92 116.14 L436.20 116.13 L437.48 116.12 L438.76 116.11 L440.04 116.10 L441.32 116.09 L442.60 116.08 L443.88 116.07 L445.16 116.06 L446.44 116.05 L447.72 116.04 L449.00 116.03 L450.28 116.02 L451.56 116.01 L452.84 116.00 L454.12 115.99 L455.40 115.98 L456.68 115.97 L457.96 115.96 L459.24 115.95 L460.52 115.94 L461.80 115.93 L463.08 115.93 L464.36 115.92 L465.64 115.91 L466.92 115.90 L468.20 115.89 L469.48 115.88 L470.76 115.87 L472.04 115.86 L473.32 115.85 L474.60 115.85 L475.88 115.84 L477.16 115.83 L478.44 115.82 L479.72 115.81 L481.00 115.80 L482.28 115.79 L483.56 115.79 L484.84 115.78 L486.12 115.77 L487.40 115.76 L488.68 115.75 L489.96 115.75 L491.24 115.74 L492.52 115.73 L493.80 115.72 L495.08 115.71 L496.36 115.71 L497.64 115.70 L498.92 115.69 L500.20 115.68 L501.48 115.67 L502.76 115.67 L504.04 115.66 L505.32 115.65 L506.60 115.64 L507.88 115.64 L509.16 115.63 L510.44 115.62 L511.72 115.61 L513.00 115.61 L514.28 115.60 L515.56 115.59 L516.84 115.59 L518.12 115.58 L519.40 115.57 L520.68 115.56 L521.96 115.56 L523.24 115.55 L524.52 115.54 L525.80 115.54 L527.08 115.53 L528.36 115.52 L529.64 115.52 L530.92 115.51 L532.20 115.50 L533.48 115.50 L534.76 115.49 L536.04 115.48 L537.32 115.48 L538.60 115.47 L539.88 115.46 L541.16 115.46 L542.44 115.45 L543.72 115.44 L545.00 115.44 L546.28 115.43 L547.56 115.42 L548.84 115.42 L550.12 115.41 L551.40 115.41 L552.68 115.40 L553.96 115.39 L555.24 115.39 L556.52 115.38 L557.80 115.37 L559.08 115.37 L560.36 115.36 L561.64 115.36 L562.92 115.35 L564.20 115.34 L565.48 115.34 L566.76 115.33 L568.04 115.33 L569.32 115.32 L570.60 115.31 L571.88 115.31 L573.16 115.30 L574.44 115.30 L575.72 115.29 L577.00 115.29 L578.28 115.28 L579.56 115.28 L580.84 115.27 L582.12 115.26 L583.40 115.26 L584.68 115.25 L585.96 115.25 L587.24 115.24 L588.52 115.24 L589.80 115.23 L591.08 115.23 L592.36 115.22 L593.64 115.21 L594.92 115.21 L596.20 115.20 L597.48 115.20 L598.76 115.19 L600.04 115.19 L601.32 115.18 L602.60 115.18 L603.88 115.17 L605.16 115.17 L606.44 115.16 L607.72 115.16 L609.00 115.15 L610.28 115.15 L611.56 115.14 L612.84 115.14 L614.12 115.13 L615.40 115.13 L616.68 115.12 L617.96 115.12 L619.24 115.11 L620.52 115.11 L621.80 115.10 L623.08 115.10 L624.36 115.09 L625.64 115.09 L626.92 115.08 L628.20 115.08 L629.48 115.07 L630.76 115.07 L632.04 115.07 L633.32 115.06 L634.60 115.06 L635.88 115.05 L637.16 115.05 L638.44 115.04 L639.72 115.04 L641.00 115.03 L642.28 115.03 L643.56 115.02 L644.84 115.02 L646.12 115.02 L647.40 115.01 L648.68 115.01 L649.96 115.00 L651.24 115.00 L652.52 114.99 L653.80 114.99 L655.08 114.98 L656.36 114.98 L657.64 114.98 L658.92 114.97 L660.20 114.97 L661.48 114.96 L662.76 114.96 L664.04 114.95 L665.32 114.95 L666.60 114.95 L667.88 114.94 L669.16 114.94 L670.44 114.93 L671.72 114.93 L673.00 114.93 L674.28 114.92 L675.56 114.92 L676.84 114.91 L678.12 114.91 L679.40 114.91 L680.68 114.90 L681.96 114.90 L683.24 114.89 L684.52 114.89 L685.80 114.89 L687.08 114.88 L688.36 114.88 L689.64 114.87 L690.92 114.87 L692.20 114.87 L693.48 114.86 L694.76 114.86 L696.04 114.85 L697.32 114.85 L698.60 114.85 L699.88 114.84 L701.16 114.84 L702.44 114.84 L703.72 114.83 L705.00 114.83"/><text x="275" y="355">Normalized grayscale input (not physical radiance)</text><text x="65" y="380" fill="#b45309">B2 (intensity 1.6)</text><text x="285" y="380" fill="#2563eb">B3 / B4 (intensity 1)</text><text x="505" y="380" fill="#dc2626">B5 (intensity 1)</text></g></svg>